<?xml version="1.0" encoding="UTF-8"?>
<svg version="1.1" xmlns="http://www.w3.org/2000/svg" width="1200" height="328">
<path d="M0 0 C396 0 792 0 1200 0 C1200 108.24 1200 216.48 1200 328 C804 328 408 328 0 328 C0 219.76 0 111.52 0 0 Z " fill="#FEFEFE" transform="translate(0,0)"/>
<path d="M0 0 C31.02 0 62.04 0 94 0 C94 32.00637202 94 32.00637202 84.6484375 41.44921875 C84.03709961 42.02720215 83.42576172 42.60518555 82.79589844 43.20068359 C79.77829308 46.22403209 77.36568528 49.66626344 74.875 53.125 C73.88279657 54.46546134 72.88803349 55.80403211 71.890625 57.140625 C71.40787109 57.78837891 70.92511719 58.43613281 70.42773438 59.10351562 C68.20176653 62.06030739 65.91886209 64.97072878 63.625 67.875 C63.18994141 68.42591309 62.75488281 68.97682617 62.30664062 69.54443359 C61.38612928 70.70968406 60.46555398 71.874884 59.54492188 73.04003906 C56.47582863 76.93363586 53.42445671 80.84101696 50.375 84.75 C49.75834473 85.53745605 49.14168945 86.32491211 48.50634766 87.13623047 C47.9344873 87.86986816 47.36262695 88.60350586 46.7734375 89.359375 C46.26216309 90.01389648 45.75088867 90.66841797 45.22412109 91.34277344 C43.93214178 92.99263395 43.93214178 92.99263395 43 95 C43.63671127 94.99777939 44.27342255 94.99555878 44.9294281 94.99327087 C51.53115276 94.9712196 58.13286704 94.95609407 64.73461914 94.94506836 C67.20142033 94.94002644 69.66821852 94.93319309 72.13500977 94.92456055 C75.67204529 94.91248875 79.20904145 94.90677044 82.74609375 94.90234375 C83.85649521 94.89718246 84.96689667 94.89202118 86.11094666 94.88670349 C87.64242088 94.88659019 87.64242088 94.88659019 89.20483398 94.88647461 C90.10862289 94.884254 91.0124118 94.88203339 91.94358826 94.87974548 C94 95 94 95 95 96 C95.17966812 95.46908249 95.35933624 94.93816498 95.54444885 94.39115906 C105.23836646 65.75236338 115.02078356 37.14776815 125.03392029 8.61886597 C126.04002209 5.75126265 127.03897111 2.88308668 128 0 C140.87 0 153.74 0 167 0 C171.49937958 11.24844895 171.49937958 11.24844895 173.32739258 16.60327148 C173.94577248 18.40815285 173.94577248 18.40815285 174.5766449 20.24949646 C175.01596363 21.54002097 175.45525838 22.83055363 175.89453125 24.12109375 C176.363804 25.49321585 176.83333865 26.8652484 177.30311584 28.23719788 C178.29594805 31.13797451 179.28734161 34.03923673 180.27752686 36.94091797 C182.59682803 43.73695922 184.92380488 50.53037264 187.25102997 57.32370377 C187.76885896 58.83529998 188.28660484 60.34692467 188.80426788 61.85857773 C194.85854406 79.53628395 201.00116278 97.18288192 207.18702698 114.81495667 C208.14195688 117.53803821 209.08745121 120.26235363 210 123 C210.33 82.41 210.66 41.82 211 0 C222.88 0 234.76 0 247 0 C247 41.91 247 83.82 247 127 C222.58 127 198.16 127 173 127 C165 103 165 103 165 101 C153.45 101 141.9 101 130 101 C129.01 104.63 128.02 108.26 127 112 C125.35 116.95 123.7 121.9 122 127 C81.08 127 40.16 127 -2 127 C-2 93.83761682 -2 93.83761682 6.71875 85.078125 C7.55599609 84.30952148 7.55599609 84.30952148 8.41015625 83.52539062 C10.90287698 81.13372614 12.82113664 78.46706174 14.875 75.6875 C15.68768139 74.62054609 16.50285765 73.55548861 17.3203125 72.4921875 C17.74602539 71.9362793 18.17173828 71.38037109 18.61035156 70.80761719 C21.30868106 67.29770299 24.03039436 63.80593705 26.75 60.3125 C27.51739502 59.32672974 27.51739502 59.32672974 28.30029297 58.32104492 C28.83541504 57.63373291 29.37053711 56.9464209 29.921875 56.23828125 C35.95070286 48.49435581 41.9747696 40.7467248 48 33 C32.16 32.67 16.32 32.34 0 32 C0 21.44 0 10.88 0 0 Z " fill="#030303" transform="translate(586,105)"/>
<path d="M0 0 C11.88 0 23.76 0 36 0 C40.45781677 6.36830967 44.65670583 12.57757305 48.5625 19.25 C54.66704274 29.55851217 61.0812047 39.65688233 67.56469727 49.73022461 C69.08184788 52.12943353 70.53952521 54.56587535 72 57 C72.33 38.19 72.66 19.38 73 0 C84.55 0 96.1 0 108 0 C108 41.58 108 83.16 108 126 C96.78 126 85.56 126 74 126 C65.99355525 116.53150882 65.99355525 116.53150882 64.4296875 111.9765625 C61.89404955 105.38825686 58.28210379 99.76964529 54.4375 93.875 C48.18163968 83.98274114 42.10406525 73.9884704 36 64 C35.67 84.79 35.34 105.58 35 127 C23.45 127 11.9 127 0 127 C0 85.09 0 43.18 0 0 Z " fill="#020202" transform="translate(849,105)"/>
<path d="M0 0 C11.55 0 23.1 0 35 0 C35 14.19 35 28.38 35 43 C47.54 43 60.08 43 73 43 C73 28.81 73 14.62 73 0 C84.55 0 96.1 0 108 0 C108 41.58 108 83.16 108 126 C96.45 126 84.9 126 73 126 C73 109.17 73 92.34 73 75 C60.46 75 47.92 75 35 75 C35 91.83 35 108.66 35 126 C23.45 126 11.9 126 0 126 C0 84.42 0 42.84 0 0 Z " fill="#000000" transform="translate(334,105)"/>
<path d="M0 0 C29.37 0 58.74 0 89 0 C89 10.56 89 21.12 89 32 C71.51 32 54.02 32 36 32 C36 36.29 36 40.58 36 45 C51.18 45 66.36 45 82 45 C82 55.56 82 66.12 82 77 C66.82 77 51.64 77 36 77 C36 82.94 36 88.88 36 95 C53.82 95 71.64 95 90 95 C90 105.56 90 116.12 90 127 C60.3 127 30.6 127 0 127 C0 85.09 0 43.18 0 0 Z " fill="#030303" transform="translate(459,105)"/>
<path d="M0 0 C40.26 0 80.52 0 122 0 C122 6.68453608 122 6.68453608 118.8125 10.1875 C114.7028426 15.0027092 111.15406989 20.05863462 107.625 25.3125 C103.79783883 30.98424909 99.9186051 36.55917354 95.6875 41.9375 C91.78291541 46.91330991 88.22310767 52.03117777 84.7578125 57.3203125 C82.59241634 60.62133865 80.36876242 63.84165011 78 67 C77.67 67 77.34 67 77 67 C76.28706985 59.12677137 77.88917952 55.57841572 82.75 49.5 C83.95172054 47.92148553 85.15221335 46.34203574 86.3515625 44.76171875 C86.96290039 43.96942871 87.57423828 43.17713867 88.20410156 42.36083984 C90.94995714 38.75121187 93.53485309 35.03457669 96.125 31.3125 C100.53536643 25.02569381 105.03440208 18.81004826 109.61181641 12.64379883 C112.00340454 9.44688197 112.00340454 9.44688197 114 6 C101.46 6 88.92 6 76 6 C76 58.8 76 111.6 76 166 C90.85 166 105.7 166 121 166 C121 167.65 121 169.3 121 171 C80.74 171 40.48 171 -1 171 C-1 165.22780761 -0.22745 164.4761797 3.3125 160.1875 C7.23167007 155.32467011 10.88524817 150.36710629 14.375 145.1875 C18.09182381 139.70113627 21.93238766 134.34208467 25.9375 129.0625 C30.22892991 123.40395716 34.40948559 117.68066767 38.5 111.875 C39.23851196 110.82711304 39.23851196 110.82711304 39.99194336 109.75805664 C42.71689561 105.87407067 45.38530613 101.9590412 48 98 C47.01 98.495 47.01 98.495 46 99 C46 67.98 46 36.96 46 5 C30.82 5 15.64 5 0 5 C0 3.35 0 1.7 0 0 Z " fill="#0C0C0C" transform="translate(47,90)"/>
<path d="M0 0 C5.40714061 -0.32303689 10.80861038 -0.5579136 16.22314453 -0.71411133 C18.06105367 -0.77923155 19.89829559 -0.86777109 21.73388672 -0.98071289 C33.77629557 -1.70273469 33.77629557 -1.70273469 39 0 C43.11445503 3.7197544 44.8640046 7.95290382 47 13 C48.24960372 15.16828789 49.53045813 17.31890274 50.84375 19.44921875 C52.06409946 21.52770756 53.28285968 23.60713032 54.5 25.6875 C55.13164063 26.75677734 55.76328125 27.82605469 56.4140625 28.92773438 C57.00960938 29.94544922 57.60515625 30.96316406 58.21875 32.01171875 C59.0221582 33.38009888 59.0221582 33.38009888 59.84179688 34.77612305 C61 37 61 37 61 39 C61.66 39 62.32 39 63 39 C63.26643311 38.12384033 63.53286621 37.24768066 63.80737305 36.3449707 C64.96160634 33.10768301 66.33110361 30.42995884 68.08203125 27.48046875 C68.68466797 26.45759766 69.28730469 25.43472656 69.90820312 24.38085938 C70.53662109 23.32705078 71.16503906 22.27324219 71.8125 21.1875 C73.0490431 19.09816855 74.28473389 17.00833241 75.51953125 14.91796875 C76.34094604 13.53774536 76.34094604 13.53774536 77.17895508 12.12963867 C79.51186633 8.12030908 81.74726588 4.05492141 84 0 C96.87 0 109.74 0 123 0 C119.34271599 7.31456801 115.71645785 14.45156981 111.625 21.5 C110.57926456 23.31631269 109.53370126 25.13272449 108.48828125 26.94921875 C107.65224365 28.39820557 107.65224365 28.39820557 106.79931641 29.87646484 C103.80048472 35.08230644 100.82016885 40.29872218 97.83978271 45.51513672 C96.85113786 47.2448981 95.86138245 48.9740246 94.87158203 50.703125 C93.58187246 52.95822545 92.30664344 55.22166202 91.04516602 57.49267578 C89.66415158 59.93535652 88.16512588 62.22753813 86.54663086 64.51904297 C78.39320098 76.55276053 78.75318984 88.33797785 78.9375 102.5 C78.9344185 104.78776955 78.9272861 107.07553739 78.91601562 109.36328125 C78.88990192 114.91143877 78.94663267 120.44979774 79 126 C67.45 126 55.9 126 44 126 C44.10183594 122.77605469 44.20367188 119.55210937 44.30859375 116.23046875 C44.80712858 91.7991273 44.88582952 73.13696317 30.05761719 52.88720703 C26.64631984 48.10054324 23.83533157 42.98229886 20.9375 37.875 C19.80062172 35.93216117 18.66129421 33.99075348 17.51953125 32.05078125 C13.64977182 25.4280239 9.87717371 18.75225906 6.125 12.0625 C5.51132568 10.97114746 4.89765137 9.87979492 4.26538086 8.75537109 C3.7060083 7.7545752 3.14663574 6.7537793 2.5703125 5.72265625 C2.07289551 4.83328369 1.57547852 3.94391113 1.06298828 3.02758789 C0 1 0 1 0 0 Z " fill="#010101" transform="translate(1047,105)"/>
<path d="M0 0 C33.33 0 66.66 0 101 0 C101 10.56 101 21.12 101 32 C90.11 32 79.22 32 68 32 C68 63.02 68 94.04 68 126 C56.45 126 44.9 126 33 126 C33 94.98 33 63.96 33 32 C22.11 32 11.22 32 0 32 C0 21.44 0 10.88 0 0 Z " fill="#000000" transform="translate(228,105)"/>
<path d="M0 0 C11.55 0 23.1 0 35 0 C35 31.35 35 62.7 35 95 C51.83 95 68.66 95 86 95 C86 105.23 86 115.46 86 126 C57.62 126 29.24 126 0 126 C0 84.42 0 42.84 0 0 Z " fill="#000000" transform="translate(974,105)"/>
<path d="M0 0 C0.33 0 0.66 0 1 0 C1 28.38 1 56.76 1 86 C-4.94 86 -10.88 86 -17 86 C-17.33 67.19 -17.66 48.38 -18 29 C-21.0492422 33.06565626 -21.37655159 33.63033337 -21.43237305 38.31933594 C-21.45216721 39.38013367 -21.47196136 40.4409314 -21.49235535 41.53387451 C-21.49874527 42.67253967 -21.50513519 43.81120483 -21.51171875 44.984375 C-21.52966995 46.15510559 -21.54762115 47.32583618 -21.56611633 48.53204346 C-21.62029866 52.27132567 -21.65414142 56.01047964 -21.6875 59.75 C-21.72066597 62.28517412 -21.75515494 64.82033131 -21.79101562 67.35546875 C-21.87852025 73.57033179 -21.93852442 79.78460666 -22 86 C-34.54 86 -47.08 86 -60 86 C-59.10739275 82.42957101 -58.5947527 81.12729813 -56.515625 78.33984375 C-55.99911377 77.63819092 -55.48260254 76.93653809 -54.95043945 76.21362305 C-54.38929443 75.46250244 -53.82814941 74.71138184 -53.25 73.9375 C-48.46808853 67.44002713 -43.82633707 60.87389112 -39.3125 54.1875 C-34.85834015 47.61057155 -30.21464393 41.27009137 -25.31640625 35.01953125 C-22.22641582 30.99160106 -19.37555024 26.81925214 -16.51171875 22.62890625 C-13.41197284 18.11866676 -10.20476659 13.68592198 -7 9.25 C-6.13507935 8.05080933 -6.13507935 8.05080933 -5.25268555 6.82739258 C-1.12913025 1.12913025 -1.12913025 1.12913025 0 0 Z " fill="#FCFCFC" transform="translate(115,170)"/>
<path d="M0 0 C5.61 0 11.22 0 17 0 C17 21.45 17 42.9 17 65 C16.34 65 15.68 65 15 65 C14.77183594 65.67675781 14.54367188 66.35351562 14.30859375 67.05078125 C12.65127435 70.78593393 10.45178101 73.8880167 8.0625 77.1875 C7.61970703 77.81591797 7.17691406 78.44433594 6.72070312 79.09179688 C4.64310421 81.98681176 2.99276576 84.00482282 0 86 C0 57.62 0 29.24 0 0 Z " fill="#FEFEFE" transform="translate(99,96)"/>
<path d="M0 0 C1.06782486 3.20347459 1.12058306 5.48187823 1.11352539 8.84838867 C1.11344986 10.0494072 1.11337433 11.25042572 1.11329651 12.48783875 C1.10813522 13.78478165 1.10297394 15.08172455 1.09765625 16.41796875 C1.09579077 17.75889534 1.09436748 19.09982261 1.09336853 20.44075012 C1.08955356 23.96709073 1.07973199 27.49339004 1.06866455 31.01971436 C1.0584285 34.61925701 1.05386621 38.21880635 1.04882812 41.81835938 C1.0381088 48.87892313 1.02104462 55.93945887 1 63 C0.67 63 0.34 63 0 63 C-0.33 44.19 -0.66 25.38 -1 6 C-4.0492422 10.06565626 -4.37655159 10.63033337 -4.43237305 15.31933594 C-4.45216721 16.38013367 -4.47196136 17.4409314 -4.49235535 18.53387451 C-4.49874527 19.67253967 -4.50513519 20.81120483 -4.51171875 21.984375 C-4.52966995 23.15510559 -4.54762115 24.32583618 -4.56611633 25.53204346 C-4.62029866 29.27132567 -4.65414142 33.01047964 -4.6875 36.75 C-4.72066597 39.28517412 -4.75515494 41.82033131 -4.79101562 44.35546875 C-4.87852025 50.57033179 -4.93852442 56.78460666 -5 63 C-17.54 63 -30.08 63 -43 63 C-42.10739275 59.42957101 -41.5947527 58.12729813 -39.515625 55.33984375 C-38.74085815 54.2873645 -38.74085815 54.2873645 -37.95043945 53.21362305 C-37.10872192 52.08694214 -37.10872192 52.08694214 -36.25 50.9375 C-31.46809256 44.44003261 -26.82619678 37.87398306 -22.3125 31.1875 C-17.81421469 24.54281106 -13.12117181 18.1349065 -8.16796875 11.82421875 C-5.24138913 8.01175558 -2.57734942 4.05461068 0 0 Z " fill="#F9F9F9" transform="translate(98,193)"/>
<path d="M0 0 C6.27 0 12.54 0 19 0 C19 53.13 19 106.26 19 161 C18.67 161 18.34 161 18 161 C17.98969254 159.94257095 17.97938507 158.88514191 17.96876526 157.79566956 C17.87079763 147.80615672 17.7680427 137.81670292 17.66066074 127.82728672 C17.60561355 122.69225159 17.55222381 117.55721061 17.50268555 112.42211914 C17.45477205 107.46188128 17.40242164 102.50170789 17.34705925 97.54154778 C17.32675729 95.65385491 17.30802515 93.76614446 17.29092598 91.87841988 C17.26661043 89.22430224 17.23659628 86.57030333 17.20532227 83.91625977 C17.19668907 82.75855072 17.19668907 82.75855072 17.18788147 81.57745361 C17.11804658 76.32679635 16.64402243 71.21219033 16 66 C16.66 66 17.32 66 18 66 C18 44.55 18 23.1 18 1 C12.39 1 6.78 1 1 1 C1.05124023 3.61454102 1.10248047 6.22908203 1.15527344 8.92285156 C1.32150897 17.55592914 1.46545576 26.18927433 1.59840012 34.82292557 C1.67970069 40.05815754 1.76853264 45.29303687 1.87451172 50.52783203 C1.97648905 55.57859663 2.05876739 60.62933154 2.12732697 65.68065643 C2.15697344 67.60890569 2.19374791 69.53705881 2.2377243 71.46503448 C2.2980597 74.16330638 2.33316217 76.86080655 2.36230469 79.55957031 C2.38603653 80.35870346 2.40976837 81.15783661 2.43421936 81.98118591 C2.44886336 85.68566289 2.33139383 87.58588522 -0.02264404 90.52752686 C-0.67517151 91.01344299 -1.32769897 91.49935913 -2 92 C-1.67 91.01 -1.34 90.02 -1 89 C-0.8796689 86.1559317 -0.81461196 83.33455053 -0.79467773 80.48950195 C-0.78477814 79.62099609 -0.77487854 78.75249023 -0.76467896 77.85766602 C-0.73307056 74.98456557 -0.70830908 72.11144858 -0.68359375 69.23828125 C-0.66302366 67.24716256 -0.64202717 65.25604823 -0.62062073 63.26493835 C-0.56540579 58.02232392 -0.51599392 52.77967012 -0.46777344 47.5369873 C-0.41755423 42.18803398 -0.36187035 36.83913789 -0.30664062 31.49023438 C-0.19906609 20.99353664 -0.09812443 10.49679034 0 0 Z " fill="#747474" transform="translate(98,95)"/>
<path d="M0 0 C2.71609918 2.71609918 3.46920222 5.86595045 4.625 9.4375 C4.85445312 10.11876953 5.08390625 10.80003906 5.3203125 11.50195312 C6.29042613 14.44982818 7 16.87666842 7 20 C2.71 20 -1.58 20 -6 20 C-4.63125844 13.04223041 -2.5466871 6.61396893 0 0 Z " fill="#E4E4E4" transform="translate(733,154)"/>
<path d="M0 0 C1.06782486 3.20347459 1.12058306 5.48187823 1.11352539 8.84838867 C1.11344986 10.0494072 1.11337433 11.25042572 1.11329651 12.48783875 C1.10813522 13.78478165 1.10297394 15.08172455 1.09765625 16.41796875 C1.09579077 17.75889534 1.09436748 19.09982261 1.09336853 20.44075012 C1.08955356 23.96709073 1.07973199 27.49339004 1.06866455 31.01971436 C1.0584285 34.61925701 1.05386621 38.21880635 1.04882812 41.81835938 C1.0381088 48.87892313 1.02104462 55.93945887 1 63 C0.67 63 0.34 63 0 63 C-0.33 44.19 -0.66 25.38 -1 6 C-4.0492422 10.06565626 -4.37655159 10.63033337 -4.43237305 15.31933594 C-4.45216721 16.38013367 -4.47196136 17.4409314 -4.49235535 18.53387451 C-4.49874527 19.67253967 -4.50513519 20.81120483 -4.51171875 21.984375 C-4.52966995 23.15510559 -4.54762115 24.32583618 -4.56611633 25.53204346 C-4.62029866 29.27132567 -4.65414142 33.01047964 -4.6875 36.75 C-4.72066597 39.28517412 -4.75515494 41.82033131 -4.79101562 44.35546875 C-4.87602984 50.57019752 -4.94434634 56.78494272 -5 63 C-5.33 63 -5.66 63 -6 63 C-6.32209088 55.63645364 -6.5864097 48.27240974 -6.81176758 40.90527344 C-6.89500936 38.40252428 -6.99118265 35.9001689 -7.10083008 33.3984375 C-7.25671676 29.78933744 -7.36510822 26.18134893 -7.46484375 22.5703125 C-7.52284653 21.46261505 -7.5808493 20.3549176 -7.64060974 19.21365356 C-7.80168659 10.90215126 -5.41618905 6.24088391 0 0 Z " fill="#878787" transform="translate(98,193)"/>
<path d="M0 0 C0.33 0 0.66 0 1 0 C1 14.52 1 29.04 1 44 C0.67 44 0.34 44 0 44 C-0.02505615 43.16863525 -0.0501123 42.33727051 -0.07592773 41.48071289 C-0.17185531 38.35512698 -0.27103303 35.2296647 -0.37231445 32.10424805 C-0.43621405 30.10277877 -0.49646484 28.10119407 -0.55664062 26.09960938 C-0.7777564 19.34707367 -1.12475619 12.7003959 -2 6 C-1.34 6 -0.68 6 0 6 C0 4.02 0 2.04 0 0 Z " fill="#838383" transform="translate(116,155)"/>
</svg>
